<svg xmlns="http://www.w3.org/2000/svg" width="32" height="32" viewBox="0 0 32 32">
  <defs>
    <linearGradient id="leafGrad" x1="0%" y1="0%" x2="100%" y2="100%">
      <stop offset="0%" style="stop-color:#22c55e"/>
      <stop offset="100%" style="stop-color:#16a34a"/>
    </linearGradient>
  </defs>
  <path d="M16 2C8 2 4 8 4 14c0 8 6 14 12 16 6-2 12-8 12-16 0-6-4-12-12-12z" fill="url(#leafGrad)"/>
  <path d="M16 4v24" stroke="#ffffff" stroke-width="1.2" fill="none" stroke-linecap="round"/>
  <path d="M16 10c-3-1-6 1-7 4" stroke="#ffffff" stroke-width="0.8" fill="none" stroke-linecap="round" opacity="0.7"/>
  <path d="M16 14c3-1 6 1 7 4" stroke="#ffffff" stroke-width="0.8" fill="none" stroke-linecap="round" opacity="0.7"/>
  <path d="M16 18c-2-0.5-4 0.5-5 2" stroke="#ffffff" stroke-width="0.8" fill="none" stroke-linecap="round" opacity="0.7"/>
  <path d="M16 22c2-0.5 4 0.5 5 2" stroke="#ffffff" stroke-width="0.8" fill="none" stroke-linecap="round" opacity="0.7"/>
</svg>
